<?xml version="1.0" standalone="no"?>
<!DOCTYPE svg PUBLIC "-//W3C//DTD SVG 20010904//EN"
 "http://www.w3.org/TR/2001/REC-SVG-20010904/DTD/svg10.dtd">
<svg version="1.0" xmlns="http://www.w3.org/2000/svg"
 width="132.000000pt" height="135.000000pt" viewBox="0 0 132.000000 135.000000"
 preserveAspectRatio="xMidYMid meet">

<g transform="translate(0.000000,135.000000) scale(0.100000,-0.100000)"
fill="#000000" stroke="none">
<path d="M516 1274 c-82 -20 -190 -79 -258 -143 -63 -58 -83 -85 -73 -102 4
-5 40 21 81 60 120 115 238 163 398 162 74 0 110 -5 170 -25 88 -30 96 -31 96
-12 0 16 -76 50 -148 65 -71 15 -194 13 -266 -5z"/>
<path d="M525 1201 c-188 -55 -323 -195 -372 -384 -12 -48 -14 -87 -9 -170 5
-86 3 -113 -9 -137 -19 -37 -19 -50 0 -50 8 0 22 15 32 33 13 26 17 61 17 182
l1 150 37 78 c84 176 244 277 441 277 69 0 78 2 75 18 -5 25 -132 27 -213 3z"/>
<path d="M806 1193 c-14 -14 -2 -24 74 -64 193 -100 272 -262 274 -561 1 -142
7 -178 26 -148 15 23 11 265 -5 355 -34 191 -162 347 -340 415 -12 5 -26 6
-29 3z"/>
<path d="M975 1180 c-3 -5 28 -42 69 -83 108 -105 150 -200 172 -380 7 -58 27
-59 32 -1 6 63 -17 153 -60 244 -32 65 -58 102 -113 158 -72 71 -88 81 -100
62z"/>
<path d="M553 1135 c-129 -35 -235 -120 -291 -235 -40 -81 -52 -140 -29 -140
11 0 20 15 28 43 31 120 112 216 227 270 62 30 75 32 172 32 97 0 110 -2 170
-31 36 -17 86 -50 112 -73 56 -50 114 -160 124 -232 7 -52 19 -68 36 -51 14
14 -7 106 -42 181 -87 183 -312 288 -507 236z"/>
<path d="M573 1066 c-59 -15 -89 -34 -74 -49 6 -6 28 -3 61 8 93 31 224 7 312
-57 9 -7 20 -9 25 -5 15 15 -14 42 -77 74 -77 39 -168 49 -247 29z"/>
<path d="M390 961 c-84 -88 -112 -183 -103 -346 5 -89 3 -106 -16 -151 -13
-29 -36 -64 -52 -80 -31 -30 -38 -54 -15 -54 18 0 70 59 98 113 21 38 23 54
21 180 -3 163 12 215 84 304 32 39 42 58 34 66 -8 8 -22 -1 -51 -32z"/>
<path d="M540 979 c-101 -45 -180 -157 -180 -255 0 -113 12 -204 28 -204 13 0
14 15 8 105 -4 65 -3 120 4 144 17 65 69 131 130 165 48 27 64 31 130 30 201
-1 293 -148 277 -444 -4 -72 -2 -112 5 -116 49 -30 47 303 -3 415 -27 61 -92
128 -154 157 -66 32 -179 33 -245 3z"/>
<path d="M121 942 c-32 -64 -51 -155 -50 -243 2 -109 9 -143 33 -147 16 -4 18
0 11 34 -4 22 -7 78 -6 126 0 70 6 105 29 173 16 46 27 87 24 90 -12 12 -23 3
-41 -33z"/>
<path d="M565 911 c-50 -23 -99 -74 -121 -126 -13 -32 -15 -58 -9 -142 10
-154 -27 -273 -109 -352 -37 -36 -46 -61 -22 -61 24 0 97 89 129 158 31 65 32
71 33 218 2 168 8 189 68 242 35 31 90 52 134 52 13 0 22 6 22 15 0 22 -75 19
-125 -4z"/>
<path d="M936 922 c-2 -4 9 -35 25 -68 16 -33 35 -91 41 -129 16 -103 5 -303
-22 -400 -35 -128 -35 -127 -14 -123 13 2 24 22 37 63 66 217 58 490 -17 619
-26 44 -39 55 -50 38z"/>
<path d="M750 890 c0 -6 16 -25 36 -42 45 -40 58 -67 74 -152 26 -142 -5 -349
-75 -488 -26 -52 -33 -74 -25 -82 17 -17 44 22 80 115 52 137 62 197 58 359
-5 164 -15 201 -76 263 -34 35 -72 49 -72 27z"/>
<path d="M579 837 c-39 -26 -81 -84 -77 -106 6 -28 27 -22 41 12 46 110 206
102 236 -11 6 -20 13 -67 16 -104 5 -49 11 -68 21 -68 17 0 19 85 3 160 -25
119 -148 179 -240 117z"/>
<path d="M601 763 l-27 -28 2 -148 c1 -81 4 -150 6 -153 3 -2 11 3 19 12 10
13 14 51 14 148 0 72 4 137 8 144 11 17 62 15 77 -3 17 -20 27 -164 18 -250
-10 -92 -48 -200 -104 -290 -28 -46 -39 -73 -33 -80 22 -22 113 127 151 250
22 70 34 226 23 310 -13 105 -92 150 -154 88z"/>
<path d="M648 715 c-3 -3 -3 -50 0 -105 8 -162 -25 -279 -115 -408 -36 -50
-41 -63 -29 -68 31 -12 111 111 151 229 29 87 43 244 28 311 -8 37 -22 54 -35
41z"/>
<path d="M217 694 c-3 -3 -3 -43 0 -88 5 -70 3 -87 -15 -122 -11 -22 -28 -46
-36 -53 -20 -17 -21 -41 -1 -41 20 0 72 73 87 121 7 26 8 61 2 110 -8 66 -20
90 -37 73z"/>
<path d="M516 653 c-3 -3 -6 -36 -6 -73 0 -119 -41 -230 -119 -325 -23 -27
-41 -53 -41 -57 0 -21 32 -3 70 38 59 64 107 172 118 264 12 103 2 177 -22
153z"/>
<path d="M1092 648 c-8 -8 -12 -46 -12 -104 0 -50 -7 -129 -16 -174 -16 -85
-15 -96 9 -87 20 7 38 108 44 245 6 113 -1 144 -25 120z"/>
<path d="M796 488 c-2 -7 -9 -39 -15 -70 -12 -68 -53 -173 -93 -241 -32 -54
-34 -67 -13 -67 17 0 58 61 92 139 29 64 67 217 59 237 -7 17 -25 18 -30 2z"/>
<path d="M322 408 c-16 -29 -42 -64 -56 -77 -28 -27 -34 -51 -12 -51 31 0 136
147 121 170 -12 19 -23 10 -53 -42z"/>
<path d="M524 328 c-14 -29 -44 -76 -66 -105 -36 -47 -42 -73 -19 -73 26 0
149 199 136 220 -12 20 -25 9 -51 -42z"/>
<path d="M911 328 c-68 -176 -70 -188 -38 -175 17 6 80 174 72 188 -10 16 -25
10 -34 -13z"/>
</g>
</svg>
